<svg xmlns="http://www.w3.org/2000/svg" id="Layer_1" data-name="Layer 1" viewBox="0 0 2368.91 800"><defs><style>.cls-1{fill:#ecd925;}</style></defs><path class="cls-1" d="M1043.41,150l-22.77,101.94h62.22c20.4,0,55.61.17,90.42.64l15.49,12.06,27.71,21.58-2.84,13.38c-43.33-.79-95.47-1.22-108.52-1.39l-24.24,114.57h-64.34l24.24-114.57c-3.72.05-14.91-.11-30.39-.37L970,478.56l564.26,8.6L1525.78,525l-568,8.61L931.75,650h1175.5l111.66-500Zm543.86,109.21.88-4.62c42.74-1.77,108.18-2.87,154-2.87h.88c33,0,64.78.66,98,2.87l-9,42.3c-27.32-2.42-61.91-2.65-89.45-2.65h-69.84l-5.07,23.8h107.52l-6.39,31.51H1661.08l-4.85,22.69c24.9.22,52.44.44,77.56.44,26,0,56.84-.22,83.72-2.64l-9,42.3c-37.24,2.2-72.49,2.86-108.4,2.86-38.12,0-77.12-.66-114.13-2.86l28.2-132.64ZM1267.8,412.78h-61.69L1230,299.93l4.28-20.23L1200,253l-1.36-1.06,102.85,2.21Zm205.59,0-71.61-74.25,1.1-4.85H1430c25.12,0,45.17,0,66.32-1.1,2.2-6.61,4.19-13,5.73-19.39a140.16,140.16,0,0,0,2.64-18.95c-17.85-.88-33.49-.88-55.08-.88h-53.32l-25.56,119.42h-61.47l28.2-133.08-21.37-16.64,1.18-5.57.71-3.34H1458.4c33.71,0,79.54.66,113.25,5.94-.88,15.87-1.76,32.17-5.29,48-4,19.6-8.81,40.09-17.84,60.81-11.46.44-24,1.76-36.58,2.64l39,41.2ZM1586.2,534.25c-.91,4.3-1.81,8.15-2.94,12.45a66.21,66.21,0,0,1-13,1.24,55.32,55.32,0,0,1-12.34-1.24c.57-4.3,1.25-8.15,2.15-12.45s1.81-8.15,3.06-12.45a64.08,64.08,0,0,1,13-1.36,56.13,56.13,0,0,1,12.33,1.36C1587.78,526.1,1587.11,530,1586.2,534.25Zm146.52-37.46h-36.21a77.36,77.36,0,0,0,.9-7.81c-8.26-1.25-17.09-1.36-25.46-1.36s-17.66.11-26.38,1.36c-1.81,5.88-3.28,11.2-4.52,17.09s-2,11.2-2.72,17.09c8.26,1.24,17.2,1.36,25.69,1.36a187.44,187.44,0,0,0,26.15-1.36,63.14,63.14,0,0,0,2.37-7.59h36.11a230.75,230.75,0,0,1-8.38,27.51,356.44,356.44,0,0,1-61.23,5,320.45,320.45,0,0,1-59.08-5,244.76,244.76,0,0,1,5.09-37,286.18,286.18,0,0,1,10.64-37,355.67,355.67,0,0,1,61.24-5,429.55,429.55,0,0,1,59.3,3.74A219.77,219.77,0,0,1,1732.72,496.79Zm140.06,9.28c-2.72,12.9-5.89,25.24-9.74,38.25a509.46,509.46,0,0,1-62.47,3.74,471.85,471.85,0,0,1-60.9-3.74c1.81-13,3.85-25.35,6.57-38.25s5.88-25.24,9.73-38.26a511.6,511.6,0,0,1,62.48-3.74,473.37,473.37,0,0,1,60.89,3.74C1877.53,480.83,1875.49,493.16,1872.78,506.07ZM2027,546.81h-31.69c3.85-18.22,8.49-40.52,11.2-58.74-7.24-.45-14.71-.91-22.18-1.13l-12.68,59.87h-31.8l12.67-59.87c-7.58.22-15.16.68-22.63,1.13-4.76,18.22-9.85,40.52-13.7,58.74h-31.69c3.62-17.43,8.15-36.78,12.68-55.46l2.37-11.54-13.8-10.64.56-2.38c16.53-.79,43.58-1.81,66.55-2.26a32.29,32.29,0,0,1,3.4-.12c1.24,0,2.72-.11,4-.11,2.49,0,5.21-.11,7.81-.11h5.32a577.81,577.81,0,0,1,68.59,3.73C2037.83,492.94,2032.17,521.91,2027,546.81Zm51-251c-24.9-1.1-48-2.65-81.31-2.65-31.28,0-53.76,1.1-78.43,2.87a46.45,46.45,0,0,0-2.43,7.27c-.44,2.2-.22,3.74-.44,6.39,52.44,2.64,106.42.66,158.2,11.45a185.71,185.71,0,0,1-4.41,42.53A240,240,0,0,1,2054.85,409c-37.9,4.4-75.13,5.94-111.71,5.94-36.13,0-72.26-.88-108.4-3.74l8.6-40.1c25.11,1.32,49.35,2.42,83.94,2.42,31.07,0,53.54-1.1,75.79-2.64a26.56,26.56,0,0,0,2.65-7.49,19.4,19.4,0,0,0,.44-7.05c-53.54-1.54-105.54-1.33-157.31-11a169.88,169.88,0,0,1,4-42.3,256.24,256.24,0,0,1,14.54-45.17,939.82,939.82,0,0,1,110.17-5.95c36.57,0,72.7.66,109.06,3.75Z"></path><path class="cls-1" d="M1785.62,489a161.13,161.13,0,0,0-4.64,17.09,150.16,150.16,0,0,0-2.6,17.09,269.5,269.5,0,0,0,27.17,1.36c9,0,18.67-.46,27.84-1.36a160,160,0,0,0,4.64-17.09,146.47,146.47,0,0,0,2.6-17.09,266.4,266.4,0,0,0-27.16-1.36C1804.41,487.62,1794.79,488.07,1785.62,489Z"></path><path class="cls-1" d="M882.47,251.94a939.65,939.65,0,0,0-110.16,5.95,255.41,255.41,0,0,0-14.54,45.17,169.88,169.88,0,0,0-4,42.3c51.78,9.69,103.77,9.48,157.31,11a19.4,19.4,0,0,1-.44,7.05,26.89,26.89,0,0,1-2.64,7.49c-22.25,1.54-44.73,2.64-75.79,2.64-34.59,0-58.83-1.1-84-2.42l-8.59,40.1C775.83,414.1,812,415,848.1,415c36.57,0,73.81-1.54,111.71-5.94a240.7,240.7,0,0,0,14.32-45.39,186.26,186.26,0,0,0,4.4-42.53c-51.77-10.79-105.75-8.81-158.19-11.45.22-2.65,0-4.19.44-6.39A46.49,46.49,0,0,1,823.2,296c19.33-1.38,131.29.88,187.19,1.83l10.25-45.9Z"></path><path class="cls-1" d="M275.67,412.78l25.56-119.42h53.32c21.59,0,37.23,0,55.08.88A138.62,138.62,0,0,1,407,313.19c-1.54,6.39-3.52,12.78-5.72,19.39-21.16,1.1-41.21,1.1-66.32,1.1h-27.1l-1.1,4.85,71.6,74.25H455.9l-39-41.2c12.56-.88,25.12-2.2,36.57-2.64,9-20.72,13.88-41.21,17.85-60.81,3.53-15.87,4.41-32.17,5.29-48-33.71-5.28-79.54-5.94-113.25-5.94H216.62l-1.1,4.62L242.4,279.7,214.2,412.78Z"></path><path class="cls-1" d="M605,415.2c35.92,0,71.17-.66,108.4-2.86l9-42.3c-26.88,2.42-57.73,2.64-83.73,2.64-25.12,0-52.66-.22-77.55-.44L566,349.55H673.77L680.16,318H572.64l5.07-23.8h69.85c27.54,0,62.13.23,89.45,2.65l9-42.3c-33.27-2.21-65-2.87-98-2.87h-.88c-45.83,0-111.27,1.1-154,2.87l-.89,4.62L519.1,279.7,490.9,412.34C527.92,414.54,566.92,415.2,605,415.2Z"></path><polygon class="cls-1" points="202.74 466.87 150 545.82 957.75 533.58 970.03 478.56 202.74 466.87"></polygon><path class="cls-1" d="M2144.46,614.56h28.69v5.36h-11.27V650h-6.2V619.92h-11.22Z"></path><path class="cls-1" d="M2182.13,614.56h8.74l9.78,27.75h.1l9.53-27.75h8.63V650H2213V622.65h-.1L2203.08,650H2198l-9.83-27.35h-.1V650h-5.91Z"></path></svg>