<svg xmlns="http://www.w3.org/2000/svg" xmlns:xlink="http://www.w3.org/1999/xlink" xmlns:serif="http://www.serif.com/" width="100%" height="100%" viewBox="0 0 375 188" xml:space="preserve" style="fill-rule:evenodd;clip-rule:evenodd;stroke-linejoin:round;stroke-miterlimit:2;"><rect id="Artboard3" x="0" y="0" width="375" height="187.5" style="fill:none;"></rect><text x="53.704px" y="146.925px" style="font-family:'Ubuntu-Bold', 'Ubuntu', sans-serif;font-weight:700;font-size:150px;fill:none;stroke:#fff;stroke-width:8.33px;">1</text><g><g><path d="M272.082,72.266c-1.796,-0 -3.255,1.458 -3.255,3.255c0,1.797 1.459,3.255 3.255,3.255c1.797,0 3.256,-1.458 3.256,-3.255c-0,-1.797 -1.459,-3.255 -3.256,-3.255Z" style="fill:#fff;fill-rule:nonzero;"></path></g></g><g><g><path d="M334.023,154.856l-43.451,-43.45c7.079,-10.662 10.807,-23.009 10.807,-35.885c0,-35.899 -29.205,-65.104 -65.104,-65.104c-35.898,-0 -65.104,29.205 -65.104,65.104c0,35.898 29.206,65.104 65.104,65.104c12.877,-0 25.224,-3.729 35.885,-10.807l43.45,43.451c2.461,2.46 5.73,3.814 9.207,3.814c3.477,0 6.746,-1.354 9.205,-3.813c2.461,-2.459 3.816,-5.729 3.816,-9.208c-0,-3.478 -1.355,-6.748 -3.815,-9.206Zm-63.394,-31.898c0,0 0,0 -0,0.001c-10.048,7.298 -21.927,11.156 -34.354,11.156c-32.308,-0 -58.594,-26.286 -58.594,-58.594c0,-32.309 26.286,-58.594 58.594,-58.594c32.309,0 58.594,26.285 58.594,58.594c-0,12.427 -3.858,24.305 -11.156,34.354c-3.652,5.03 -8.053,9.432 -13.084,13.083Zm6.83,2.951c3.369,-2.756 6.449,-5.836 9.205,-9.205l9.235,9.236c-2.809,3.315 -5.89,6.396 -9.205,9.205l-9.235,-9.236Zm51.96,42.756c-1.23,1.231 -2.864,1.908 -4.602,1.908c-1.738,-0 -3.372,-0.677 -4.603,-1.908l-28.904,-28.905c3.296,-2.829 6.376,-5.908 9.204,-9.204l28.906,28.905c1.23,1.229 1.907,2.863 1.907,4.601c0,1.739 -0.677,3.373 -1.908,4.603Z" style="fill:#fff;fill-rule:nonzero;"></path></g></g><g><g><path d="M236.275,23.437c-28.719,0 -52.083,23.365 -52.083,52.084c-0,28.719 23.364,52.083 52.083,52.083c28.719,0 52.084,-23.364 52.084,-52.083c-0,-28.719 -23.365,-52.084 -52.084,-52.084Zm0,97.657c-25.129,-0 -45.573,-20.444 -45.573,-45.573c0,-25.129 20.444,-45.573 45.573,-45.573c25.129,-0 45.573,20.444 45.573,45.573c0,25.129 -20.444,45.573 -45.573,45.573Z" style="fill:#fff;fill-rule:nonzero;"></path></g></g><g><g><path d="M272.755,61.547c-2.803,-7.295 -7.684,-13.533 -14.115,-18.038c-6.584,-4.613 -14.318,-7.051 -22.365,-7.051c-1.797,0 -3.255,1.458 -3.255,3.256c-0,1.797 1.458,3.255 3.255,3.255c13.379,-0 25.596,8.404 30.403,20.913c0.497,1.295 1.73,2.089 3.039,2.089c0.388,0 0.783,-0.07 1.167,-0.217c1.678,-0.645 2.516,-2.528 1.871,-4.207Z" style="fill:#fff;fill-rule:nonzero;"></path></g></g></svg>