<svg xmlns="http://www.w3.org/2000/svg" width="70" height="70.031" viewBox="0 0 70 70.031">
  <g id="Page-1" transform="translate(-0.031 -0.039)">
    <g id="_036---Spare-Tyre-Swap" data-name="036---Spare-Tyre-Swap" transform="translate(0.031 0.039)">
      <path id="Shape" d="M67.082,62.49a22.109,22.109,0,0,0,0-22.063.63.63,0,0,1,0-.117l-.105-.105a22.191,22.191,0,0,0-7.919-7.919.4.4,0,0,0-.105-.093h-.105a21.887,21.887,0,0,0-15.814-2.336,22.133,22.133,0,0,0-1.588-18.652.631.631,0,0,1,0-.117l-.105-.105a22.191,22.191,0,0,0-7.919-7.919.4.4,0,0,0-.105-.093h-.105a22.063,22.063,0,0,0-21.981,0h-.105a.4.4,0,0,0-.105.093,22.191,22.191,0,0,0-7.954,7.919l-.105.105a.631.631,0,0,1,0,.117,22.028,22.028,0,0,0,0,21.957.631.631,0,0,1,0,.117,1.168,1.168,0,0,0,.152.187A22.191,22.191,0,0,0,10.985,41.3a.4.4,0,0,0,.105.093.876.876,0,0,0,.152.07,22,22,0,0,0,10.944,2.908,22.7,22.7,0,0,0,4.859-.549,21.887,21.887,0,0,0-1.355,7.557,22.191,22.191,0,0,0,2.967,11.084,21.911,21.911,0,0,0,4.24,5.267h-3.7a1.168,1.168,0,1,0,0,2.336H66.568a1.168,1.168,0,1,0,0-2.336h-3.7a21.91,21.91,0,0,0,4.216-5.244ZM23.354,42.04V40.872a1.168,1.168,0,0,0-2.336,0V42.04a19.727,19.727,0,0,1-7.72-2.067l.561-.958a1.172,1.172,0,0,0-2.032-1.168l-.561.969a20.042,20.042,0,0,1-5.653-5.653l.969-.561A1.172,1.172,0,0,0,5.414,30.57l-.958.561a19.727,19.727,0,0,1-2.067-7.779H3.5a1.168,1.168,0,1,0,0-2.336H2.331A19.727,19.727,0,0,1,4.4,13.3l.958.561a1.172,1.172,0,1,0,1.168-2.032l-.969-.561a20.042,20.042,0,0,1,5.711-5.653l.561.969a1.172,1.172,0,0,0,2.032-1.168L13.3,4.455a19.727,19.727,0,0,1,7.72-2.067V3.5a1.168,1.168,0,1,0,2.336,0V2.329A19.727,19.727,0,0,1,31.074,4.4l-.561.958a1.172,1.172,0,0,0,2.032,1.168l.561-.969a20.042,20.042,0,0,1,5.653,5.653l-.969.561A1.172,1.172,0,1,0,38.958,13.8l.958-.561a19.727,19.727,0,0,1,2.126,7.779H40.873a1.168,1.168,0,0,0,0,2.336h1.1a19.271,19.271,0,0,1-1.834,7.265,23.36,23.36,0,0,0-3.247,1.507h-.105a.4.4,0,0,0-.105.093,22.191,22.191,0,0,0-7.919,7.919l-.105.105a.63.63,0,0,1,0,.117c-.128.222-.257.444-.374.677a19.551,19.551,0,0,1-4.929,1ZM36.645,67.734A19.855,19.855,0,0,1,31.3,62.3l.981-.561a1.172,1.172,0,1,0-1.168-2.032l-.981.572a19.855,19.855,0,0,1-2.1-7.732h1.168a1.168,1.168,0,0,0,0-2.336h-1.11a19.727,19.727,0,0,1,2.067-7.72l.958.561a1.172,1.172,0,1,0,1.168-2.032l-.969-.561A20.042,20.042,0,0,1,36.96,34.81l.561.969a1.172,1.172,0,1,0,2.032-1.168l-.561-.958a19.727,19.727,0,0,1,7.72-2.067V32.7a1.168,1.168,0,1,0,2.336,0v-1.11a19.727,19.727,0,0,1,7.72,2.067l-.561.958a1.172,1.172,0,1,0,2.032,1.168l.561-.969a20.042,20.042,0,0,1,5.653,5.653l-.969.561a1.172,1.172,0,1,0,1.168,2.032l.958-.561a19.727,19.727,0,0,1,2.126,7.72H66.568a1.168,1.168,0,1,0,0,2.336h1.168a19.855,19.855,0,0,1-2.067,7.732l-.981-.572a1.172,1.172,0,0,0-1.168,2.032l.981.561a19.855,19.855,0,0,1-5.384,5.431Z" transform="translate(-0.031 -0.039)" fill="#013662"/>
      <path id="Shape-2" data-name="Shape" d="M43.015,32A14.015,14.015,0,1,0,57.031,46.015,14.015,14.015,0,0,0,43.015,32ZM53.7,41.344l-6.762,2.2a4.672,4.672,0,0,0-2.756-2.032V34.394A11.68,11.68,0,0,1,53.7,41.344ZM40.679,46.015a2.336,2.336,0,1,1,2.336,2.336A2.336,2.336,0,0,1,40.679,46.015Zm1.168-11.679v7.113a4.672,4.672,0,0,0-2.756,2.009l-6.762-2.114a11.68,11.68,0,0,1,9.519-6.949ZM31.336,46.015a11.493,11.493,0,0,1,.269-2.476l6.739,2.2v.28A4.672,4.672,0,0,0,39.43,48.97l-4.181,5.746a11.68,11.68,0,0,1-3.913-8.7Zm5.84,10.079,4.17-5.746a4.462,4.462,0,0,0,3.41,0l4.1,5.746a11.586,11.586,0,0,1-11.75,0Zm13.642-1.378L46.636,48.97a4.672,4.672,0,0,0,1.051-2.955v-.28l6.762-2.2a11.493,11.493,0,0,1,.245,2.476,11.68,11.68,0,0,1-3.913,8.7Z" transform="translate(4.835 5.328)" fill="#013662"/>
      <path id="Shape-3" data-name="Shape" d="M35.031,21.015a14.015,14.015,0,1,0-4.105,9.91A14.015,14.015,0,0,0,35.031,21.015Zm-6.249,8.7L24.6,23.97a4.672,4.672,0,0,0,1.086-2.955v-.28l6.762-2.2a11.493,11.493,0,0,1,.245,2.476A11.679,11.679,0,0,1,28.782,29.717Zm-10.1-8.7a2.336,2.336,0,1,1,2.336,2.336A2.336,2.336,0,0,1,18.679,21.015ZM31.7,16.344l-6.762,2.2a4.672,4.672,0,0,0-2.756-2.032V9.394A11.679,11.679,0,0,1,31.7,16.344ZM19.847,9.394v7.113a4.672,4.672,0,0,0-2.756,2.009l-6.762-2.172A11.679,11.679,0,0,1,19.847,9.394ZM9.336,21.015A11.493,11.493,0,0,1,9.6,18.539l6.739,2.2v.28A4.672,4.672,0,0,0,17.43,23.97l-4.181,5.746A11.68,11.68,0,0,1,9.336,21.015Zm5.84,10.079,4.17-5.746a4.462,4.462,0,0,0,3.41,0l4.1,5.746a11.586,11.586,0,0,1-11.75,0Z" transform="translate(1.14 1.13)" fill="#013662"/>
      <path id="Shape-4" data-name="Shape" d="M45.5,8H43.168a1.168,1.168,0,0,0,0,2.336H45.5a8.176,8.176,0,0,1,8.176,8.176v1.857L52.173,18.85a1.173,1.173,0,0,0-1.658,1.658l3.5,3.5a1.168,1.168,0,0,0,1.658,0l3.5-3.5a1.173,1.173,0,1,0-1.658-1.658l-1.507,1.518V18.512A10.512,10.512,0,0,0,45.5,8Z" transform="translate(7.018 1.298)" fill="#013662"/>
      <path id="Shape-5" data-name="Shape" d="M19.352,52.016H17.016A8.176,8.176,0,0,1,8.84,43.841V41.984L10.347,43.5a1.173,1.173,0,1,0,1.658-1.658l-3.5-3.5a1.168,1.168,0,0,0-1.658,0l-3.5,3.5A1.173,1.173,0,0,0,5,43.5L6.5,41.984v1.857A10.512,10.512,0,0,0,17.016,54.352h2.336a1.168,1.168,0,0,0,0-2.336Z" transform="translate(0.468 6.335)" fill="#013662"/>
    </g>
  </g>
</svg>
