<svg xmlns="http://www.w3.org/2000/svg" id="Group_68" data-name="Group 68" width="75.089" height="70" viewBox="0 0 75.089 70"><path id="Path_4" data-name="Path 4" d="M158.784-48.505l-5.819,5.818H164.2v2.454H152.965l5.819,5.819-1.735,1.735-8.781-8.781,8.781-8.78Z" transform="translate(-90.335 100.61)" fill="#013662"></path><path id="Path_5" data-name="Path 5" d="M2.454-144.775H15.481v2.936H2.454Zm57.15,0H72.635v2.936H59.6ZM43.089-111.6H38.477l.051-.07a5.4,5.4,0,0,0,1.3-3.581,5.4,5.4,0,0,0-1.3-3.582,3.025,3.025,0,0,1-.817-2.117,3.023,3.023,0,0,1,.817-2.116,5.4,5.4,0,0,0,1.3-3.581,5.4,5.4,0,0,0-1.3-3.581,3.022,3.022,0,0,1-.817-2.116,3.024,3.024,0,0,1,.817-2.116,5.4,5.4,0,0,0,1.3-3.581,5.4,5.4,0,0,0-1.3-3.581,3.023,3.023,0,0,1-.817-2.117,3.024,3.024,0,0,1,.817-2.116,5.4,5.4,0,0,0,1.3-3.581,5.4,5.4,0,0,0-1.3-3.581,3.023,3.023,0,0,1-.817-2.116,3.023,3.023,0,0,1,.817-2.115,5.4,5.4,0,0,0,1.3-3.581,5.4,5.4,0,0,0-1.3-3.581,3.022,3.022,0,0,1-.817-2.116,3.023,3.023,0,0,1,.817-2.115,5.4,5.4,0,0,0,1.3-3.581,5.4,5.4,0,0,0-1.3-3.581,5.218,5.218,0,0,1-.575-.889h4.882a5.742,5.742,0,0,0,1.179,2.354,3.022,3.022,0,0,1,.817,2.116,3.021,3.021,0,0,1-.817,2.116,5.4,5.4,0,0,0-1.3,3.581,5.4,5.4,0,0,0,1.3,3.581,3.021,3.021,0,0,1,.817,2.116,3.02,3.02,0,0,1-.817,2.115,5.4,5.4,0,0,0-1.3,3.581,5.4,5.4,0,0,0,1.3,3.581,3.021,3.021,0,0,1,.817,2.116,3.021,3.021,0,0,1-.817,2.116,5.4,5.4,0,0,0-1.3,3.581,5.4,5.4,0,0,0,1.3,3.581,3.023,3.023,0,0,1,.817,2.117,3.022,3.022,0,0,1-.817,2.116,5.4,5.4,0,0,0-1.3,3.581,5.4,5.4,0,0,0,1.3,3.581,3.021,3.021,0,0,1,.817,2.116,3.022,3.022,0,0,1-.817,2.116,5.4,5.4,0,0,0-1.3,3.581,5.4,5.4,0,0,0,1.3,3.581,3.024,3.024,0,0,1,.817,2.117,3.023,3.023,0,0,1-.817,2.117,6.828,6.828,0,0,0-.926,1.534M32.376-172.228a5.4,5.4,0,0,0-1.3-3.581,5.214,5.214,0,0,1-.575-.889h4.882a5.742,5.742,0,0,0,1.179,2.354,3.022,3.022,0,0,1,.817,2.116,3.021,3.021,0,0,1-.817,2.116,5.4,5.4,0,0,0-1.3,3.581,5.4,5.4,0,0,0,1.3,3.581,3.021,3.021,0,0,1,.817,2.116,3.02,3.02,0,0,1-.817,2.115,5.4,5.4,0,0,0-1.3,3.581,5.4,5.4,0,0,0,1.3,3.581,3.021,3.021,0,0,1,.817,2.116,3.021,3.021,0,0,1-.817,2.116,5.4,5.4,0,0,0-1.3,3.581,5.4,5.4,0,0,0,1.3,3.581,3.023,3.023,0,0,1,.817,2.117,3.022,3.022,0,0,1-.817,2.116,5.4,5.4,0,0,0-1.3,3.581,5.4,5.4,0,0,0,1.3,3.581,3.021,3.021,0,0,1,.817,2.116,3.022,3.022,0,0,1-.817,2.116,5.4,5.4,0,0,0-1.3,3.581,5.4,5.4,0,0,0,1.3,3.581,3.024,3.024,0,0,1,.817,2.117,3.023,3.023,0,0,1-.817,2.117,6.828,6.828,0,0,0-.926,1.534H31.022l.051-.07a5.4,5.4,0,0,0,1.3-3.581,5.4,5.4,0,0,0-1.3-3.582,3.025,3.025,0,0,1-.817-2.117,3.023,3.023,0,0,1,.817-2.116,5.4,5.4,0,0,0,1.3-3.581,5.4,5.4,0,0,0-1.3-3.581,3.022,3.022,0,0,1-.817-2.116,3.024,3.024,0,0,1,.817-2.116,5.4,5.4,0,0,0,1.3-3.581,5.4,5.4,0,0,0-1.3-3.581,3.023,3.023,0,0,1-.817-2.117,3.024,3.024,0,0,1,.817-2.116,5.4,5.4,0,0,0,1.3-3.581,5.4,5.4,0,0,0-1.3-3.581,3.023,3.023,0,0,1-.817-2.116,3.022,3.022,0,0,1,.817-2.115,5.4,5.4,0,0,0,1.3-3.581,5.4,5.4,0,0,0-1.3-3.581,3.022,3.022,0,0,1-.817-2.116,3.021,3.021,0,0,1,.817-2.115,5.4,5.4,0,0,0,1.3-3.581M57.15-135.133H53.386v-16.349H57.15ZM48.486-111.6H45.932l.052-.07a5.4,5.4,0,0,0,1.3-3.581,5.4,5.4,0,0,0-1.3-3.582,3.024,3.024,0,0,1-.817-2.117,3.022,3.022,0,0,1,.817-2.116,5.4,5.4,0,0,0,1.3-3.581,5.4,5.4,0,0,0-1.3-3.581,3.021,3.021,0,0,1-.817-2.116,3.022,3.022,0,0,1,.817-2.116,5.4,5.4,0,0,0,1.3-3.581,5.4,5.4,0,0,0-1.3-3.581,3.022,3.022,0,0,1-.817-2.117,3.022,3.022,0,0,1,.817-2.116,5.4,5.4,0,0,0,1.3-3.581,5.4,5.4,0,0,0-1.3-3.581,3.022,3.022,0,0,1-.817-2.116,3.02,3.02,0,0,1,.817-2.115,5.4,5.4,0,0,0,1.3-3.581,5.4,5.4,0,0,0-1.3-3.581,3.021,3.021,0,0,1-.817-2.116,3.02,3.02,0,0,1,.817-2.115,5.4,5.4,0,0,0,1.3-3.581,5.4,5.4,0,0,0-1.3-3.581,5.2,5.2,0,0,1-.576-.889h3.077a2.45,2.45,0,0,1,2.447,2.447v60.2a2.45,2.45,0,0,1-2.447,2.447m-24.333-2.447v-60.2A2.449,2.449,0,0,1,26.6-176.7h1.327a5.742,5.742,0,0,0,1.18,2.354,3.024,3.024,0,0,1,.817,2.116,3.022,3.022,0,0,1-.817,2.116,5.4,5.4,0,0,0-1.3,3.581,5.4,5.4,0,0,0,1.3,3.581,3.022,3.022,0,0,1,.817,2.116,3.022,3.022,0,0,1-.817,2.115,5.4,5.4,0,0,0-1.3,3.581,5.4,5.4,0,0,0,1.3,3.581,3.022,3.022,0,0,1,.817,2.116,3.023,3.023,0,0,1-.817,2.116,5.4,5.4,0,0,0-1.3,3.581,5.4,5.4,0,0,0,1.3,3.581,3.024,3.024,0,0,1,.817,2.117,3.023,3.023,0,0,1-.818,2.116,5.4,5.4,0,0,0-1.3,3.581,5.4,5.4,0,0,0,1.3,3.581,3.023,3.023,0,0,1,.817,2.116,3.024,3.024,0,0,1-.817,2.116,5.4,5.4,0,0,0-1.3,3.581,5.4,5.4,0,0,0,1.3,3.581,3.024,3.024,0,0,1,.818,2.117,3.024,3.024,0,0,1-.818,2.117,6.828,6.828,0,0,0-.926,1.534H26.6A2.449,2.449,0,0,1,24.152-114.052Zm-6.218-37.431H21.7v16.35H17.935ZM0-139.385H15.481v6.707H21.7v18.627a4.906,4.906,0,0,0,4.9,4.9H48.486a4.906,4.906,0,0,0,4.9-4.9v-18.627H59.6v-6.707H75.089v-7.844H59.6v-6.707H53.386V-174.25a4.906,4.906,0,0,0-4.9-4.9H26.6a4.906,4.906,0,0,0-4.9,4.9v20.315H15.481v6.707H0Z" transform="translate(0 179.151)" fill="#013662"></path><path id="Path_6" data-name="Path 6" d="M8.553-155.928l5.819-5.819H3.14V-164.2H14.372l-5.819-5.819,1.735-1.735,8.781,8.781-8.781,8.78Z" transform="translate(-1.913 174.644)" fill="#013662"></path></svg>