<svg xmlns="http://www.w3.org/2000/svg" xmlns:xlink="http://www.w3.org/1999/xlink" xmlns:serif="http://www.serif.com/" width="100%" height="100%" viewBox="0 0 375 188" xml:space="preserve" style="fill-rule:evenodd;clip-rule:evenodd;stroke-linejoin:round;stroke-miterlimit:2;"><rect id="Artboard2" x="0" y="0" width="375" height="187.5" style="fill:none;"></rect><text x="32.871px" y="146.925px" style="font-family:'Ubuntu-Bold', 'Ubuntu', sans-serif;font-weight:700;font-size:150px;fill:none;stroke:#fff;stroke-width:8.33px;">2</text><g><g><g><path d="M255.924,156.25l-40.297,0c-5.844,0 -10.602,-4.229 -10.602,-9.424l0,-50.597c0,-5.194 4.758,-9.423 10.602,-9.423l56.914,-0c5.851,-0 10.609,4.229 10.609,9.423l0,35.813c0,2.777 -1.219,5.396 -3.422,7.368l-15.515,13.791c-2.188,1.938 -5.211,3.049 -8.289,3.049Zm-40.297,-62.5c-1.539,0 -2.789,1.111 -2.789,2.479l-0,50.597c-0,1.368 1.25,2.48 2.789,2.48l40.289,-0c1.031,-0 2.039,-0.368 2.765,-1.014l15.508,-13.785c0.742,-0.667 1.149,-1.542 1.149,-2.465l-0,-35.813c-0,-1.368 -1.25,-2.479 -2.789,-2.479l-56.922,0Z" style="fill:#fff;fill-rule:nonzero;"></path></g></g><g><g><path d="M237.83,139.819c-1.039,0 -2.031,-0.368 -2.766,-1.013l-16.672,-14.82c-1.523,-1.354 -1.523,-3.555 0,-4.91c1.524,-1.354 4,-1.354 5.524,0l13.719,12.195l26.437,-26.847c1.422,-1.445 3.891,-1.591 5.508,-0.327c1.625,1.264 1.789,3.459 0.367,4.903l-29.18,29.646c-0.711,0.722 -1.726,1.153 -2.804,1.18c-0.047,-0.007 -0.086,-0.007 -0.133,-0.007Z" style="fill:#fff;fill-rule:nonzero;"></path></g></g></g><g><g><path d="M318.306,177.083l-148.437,0c-10.773,0 -19.531,-7.791 -19.531,-17.361l-0,-118.055c-0,-9.57 8.758,-17.361 19.531,-17.361l148.437,-0c10.774,-0 19.532,7.791 19.532,17.361l-0,118.055c-0,9.57 -8.758,17.361 -19.532,17.361Zm-148.437,-145.833c-6.461,0 -11.719,4.674 -11.719,10.417l0,118.055c0,5.743 5.258,10.417 11.719,10.417l148.437,-0c6.461,-0 11.719,-4.674 11.719,-10.417l0,-118.055c0,-5.743 -5.258,-10.417 -11.719,-10.417l-148.437,0Z" style="fill:#fff;fill-rule:nonzero;"></path></g></g><g><g><path d="M333.931,65.972l-179.687,0c-2.156,0 -3.906,-1.555 -3.906,-3.472c-0,-1.917 1.75,-3.472 3.906,-3.472l179.687,-0c2.157,-0 3.907,1.555 3.907,3.472c-0,1.917 -1.75,3.472 -3.907,3.472Z" style="fill:#fff;fill-rule:nonzero;"></path></g></g><g><g><path d="M193.306,45.139c-2.156,-0 -3.906,-1.556 -3.906,-3.472l0,-27.778c0,-1.917 1.75,-3.472 3.906,-3.472c2.157,-0 3.907,1.555 3.907,3.472l-0,27.778c-0,1.916 -1.75,3.472 -3.907,3.472Z" style="fill:#fff;fill-rule:nonzero;"></path></g></g><g><g><path d="M294.869,45.139c-2.156,-0 -3.906,-1.556 -3.906,-3.472l-0,-27.778c-0,-1.917 1.75,-3.472 3.906,-3.472c2.156,-0 3.906,1.555 3.906,3.472l0,27.778c0,1.916 -1.75,3.472 -3.906,3.472Z" style="fill:#fff;fill-rule:nonzero;"></path></g></g></svg>