<svg xmlns="http://www.w3.org/2000/svg" id="Group_67" data-name="Group 67" width="45.497" height="70" viewBox="0 0 45.497 70"><path id="Path_7" data-name="Path 7" d="M28.126-97.817H23.9a4.09,4.09,0,0,0,1.049-2.789,4.312,4.312,0,0,0-1.311-3.094,2.047,2.047,0,0,1-.724-1.54,2.046,2.046,0,0,1,.724-1.539,4.312,4.312,0,0,0,1.311-3.094,4.311,4.311,0,0,0-1.311-3.094,2.046,2.046,0,0,1-.724-1.539,2.045,2.045,0,0,1,.724-1.539,4.311,4.311,0,0,0,1.311-3.094,4.312,4.312,0,0,0-1.311-3.094,2.02,2.02,0,0,1-.724-1.539,2.021,2.021,0,0,1,.724-1.539,4.31,4.31,0,0,0,1.311-3.093,4.311,4.311,0,0,0-1.311-3.094,2.02,2.02,0,0,1-.724-1.539,2.019,2.019,0,0,1,.724-1.539,4.31,4.31,0,0,0,1.311-3.093,4.31,4.31,0,0,0-1.311-3.094,2.021,2.021,0,0,1-.724-1.539,2.02,2.02,0,0,1,.724-1.539,4.31,4.31,0,0,0,1.311-3.093,4.31,4.31,0,0,0-1.311-3.093c-.116-.132-.218-.248-.308-.361h4.541a4.784,4.784,0,0,0,1.153,1.915,2.02,2.02,0,0,1,.724,1.539,2.02,2.02,0,0,1-.724,1.539,4.311,4.311,0,0,0-1.31,3.093,4.311,4.311,0,0,0,1.31,3.094,2.021,2.021,0,0,1,.724,1.539,2.019,2.019,0,0,1-.724,1.539,4.311,4.311,0,0,0-1.31,3.093,4.31,4.31,0,0,0,1.31,3.094,2.02,2.02,0,0,1,.724,1.539,2.021,2.021,0,0,1-.724,1.539,4.31,4.31,0,0,0-1.31,3.094,4.311,4.311,0,0,0,1.31,3.094,2.044,2.044,0,0,1,.724,1.539,2.019,2.019,0,0,1-.724,1.539,4.311,4.311,0,0,0-1.31,3.094,4.311,4.311,0,0,0,1.31,3.094,2.02,2.02,0,0,1,.724,1.539,2.047,2.047,0,0,1-.724,1.54,4.31,4.31,0,0,0-1.31,3.094,4.31,4.31,0,0,0,1.31,3.094,2.047,2.047,0,0,1,.724,1.54,2.046,2.046,0,0,1-.724,1.54,5.758,5.758,0,0,0-.9,1.25M17.79-146.935a4.31,4.31,0,0,0-1.31-3.093c-.116-.132-.218-.248-.307-.361h4.54a4.792,4.792,0,0,0,1.153,1.916,2.02,2.02,0,0,1,.724,1.538,2.021,2.021,0,0,1-.724,1.539,4.31,4.31,0,0,0-1.311,3.093,4.311,4.311,0,0,0,1.311,3.094,2.023,2.023,0,0,1,.724,1.539,2.021,2.021,0,0,1-.724,1.539,4.31,4.31,0,0,0-1.311,3.093,4.311,4.311,0,0,0,1.311,3.094,2.021,2.021,0,0,1,.724,1.539,2.022,2.022,0,0,1-.724,1.539,4.31,4.31,0,0,0-1.311,3.094,4.311,4.311,0,0,0,1.311,3.094,2.046,2.046,0,0,1,.724,1.539,2.021,2.021,0,0,1-.724,1.539,4.312,4.312,0,0,0-1.311,3.094,4.312,4.312,0,0,0,1.311,3.094,2.021,2.021,0,0,1,.724,1.539,2.048,2.048,0,0,1-.724,1.54,4.31,4.31,0,0,0-1.311,3.094,4.312,4.312,0,0,0,1.311,3.094,2.047,2.047,0,0,1,.724,1.54,2.046,2.046,0,0,1-.724,1.539,5.758,5.758,0,0,0-.9,1.25H16.742a4.091,4.091,0,0,0,1.048-2.789,4.311,4.311,0,0,0-1.31-3.094,2.047,2.047,0,0,1-.725-1.54,2.046,2.046,0,0,1,.725-1.539,4.311,4.311,0,0,0,1.31-3.094,4.311,4.311,0,0,0-1.31-3.094,2.046,2.046,0,0,1-.725-1.539,2.045,2.045,0,0,1,.725-1.539,4.311,4.311,0,0,0,1.31-3.094,4.312,4.312,0,0,0-1.31-3.094,2.021,2.021,0,0,1-.724-1.539,2.022,2.022,0,0,1,.724-1.539,4.309,4.309,0,0,0,1.31-3.093,4.311,4.311,0,0,0-1.31-3.094,2.021,2.021,0,0,1-.724-1.539,2.021,2.021,0,0,1,.724-1.539,4.31,4.31,0,0,0,1.31-3.093,4.31,4.31,0,0,0-1.31-3.094,2.022,2.022,0,0,1-.724-1.539,2.021,2.021,0,0,1,.724-1.539,4.31,4.31,0,0,0,1.31-3.093M42.264-97.817H31.053a4.09,4.09,0,0,0,1.048-2.789,4.313,4.313,0,0,0-1.31-3.094,2.047,2.047,0,0,1-.725-1.54,2.046,2.046,0,0,1,.725-1.539,4.313,4.313,0,0,0,1.31-3.094,4.313,4.313,0,0,0-1.31-3.094,2.046,2.046,0,0,1-.725-1.539,2.045,2.045,0,0,1,.725-1.539,4.313,4.313,0,0,0,1.31-3.094,4.312,4.312,0,0,0-1.311-3.094,2.021,2.021,0,0,1-.724-1.539,2.021,2.021,0,0,1,.725-1.539,4.312,4.312,0,0,0,1.31-3.093A4.311,4.311,0,0,0,30.79-131.5a2.021,2.021,0,0,1-.724-1.539,2.021,2.021,0,0,1,.724-1.539A4.31,4.31,0,0,0,32.1-137.67a4.31,4.31,0,0,0-1.311-3.094,2.022,2.022,0,0,1-.724-1.539,2.021,2.021,0,0,1,.724-1.539,4.31,4.31,0,0,0,1.311-3.093,4.309,4.309,0,0,0-1.311-3.093c-.116-.132-.218-.249-.307-.361h2.769a2.163,2.163,0,0,1,2.349,1.81v44.3a4.089,4.089,0,0,0,4.3,3.825h2.362c.5,0,.878.3.878.564v1.513c0,.266-.376.564-.878.564M2.355-99.894c0-.266.375-.564.878-.564H5.6a4.089,4.089,0,0,0,4.3-3.825v-44.3a2.162,2.162,0,0,1,2.348-1.81h1.313a4.788,4.788,0,0,0,1.153,1.916,2.019,2.019,0,0,1,.725,1.538,2.02,2.02,0,0,1-.725,1.539A4.311,4.311,0,0,0,13.4-142.3a4.312,4.312,0,0,0,1.31,3.094,2.022,2.022,0,0,1,.725,1.539,2.02,2.02,0,0,1-.725,1.539,4.311,4.311,0,0,0-1.31,3.093,4.312,4.312,0,0,0,1.31,3.094,2.02,2.02,0,0,1,.725,1.539,2.021,2.021,0,0,1-.725,1.539,4.311,4.311,0,0,0-1.31,3.094,4.313,4.313,0,0,0,1.31,3.094,2.045,2.045,0,0,1,.725,1.539,2.02,2.02,0,0,1-.725,1.539,4.313,4.313,0,0,0-1.31,3.094,4.313,4.313,0,0,0,1.31,3.094,2.02,2.02,0,0,1,.725,1.539,2.047,2.047,0,0,1-.725,1.54,4.311,4.311,0,0,0-1.31,3.094,4.313,4.313,0,0,0,1.31,3.094,2.046,2.046,0,0,1,.725,1.54,2.045,2.045,0,0,1-.725,1.539,5.77,5.77,0,0,0-.9,1.25H3.233c-.5,0-.878-.3-.878-.564ZM0-99.894v1.513a3.092,3.092,0,0,0,3.233,2.919h39.03A3.092,3.092,0,0,0,45.5-98.382v-1.513a3.092,3.092,0,0,0-3.233-2.919H39.9c-1.055,0-1.946-.673-1.946-1.47v-44.3a4.464,4.464,0,0,0-4.7-4.165H12.245a4.464,4.464,0,0,0-4.7,4.165v44.3c0,.8-.891,1.47-1.947,1.47H3.233A3.092,3.092,0,0,0,0-99.894" transform="translate(0 165.462)" fill="#013662"></path><path id="Path_8" data-name="Path 8" d="M71.994-171.917a1.178,1.178,0,0,1-1.178-1.178v-4.291a1.178,1.178,0,0,1,1.178-1.178,1.178,1.178,0,0,1,1.178,1.178v4.291a1.178,1.178,0,0,1-1.178,1.178" transform="translate(-44.259 181.599)" fill="#013662"></path><path id="Path_9" data-name="Path 9" d="M58.7-175.4a1.178,1.178,0,0,1-1.178-1.178v-8.9a1.178,1.178,0,0,1,1.178-1.178,1.178,1.178,0,0,1,1.178,1.178v8.9A1.178,1.178,0,0,1,58.7-175.4" transform="translate(-35.949 186.658)" fill="#013662"></path><path id="Path_10" data-name="Path 10" d="M45.4-171.917a1.178,1.178,0,0,1-1.178-1.178v-4.291a1.178,1.178,0,0,1,1.178-1.178,1.178,1.178,0,0,1,1.178,1.178v4.291a1.178,1.178,0,0,1-1.178,1.178" transform="translate(-27.639 181.599)" fill="#013662"></path></svg>