<svg xmlns="http://www.w3.org/2000/svg" width="75" height="70" viewBox="0 0 75 70"><g id="Outline" transform="translate(-2.047 -4)"><path id="Path_54" data-name="Path 54" d="M11.329,53.024c.25.375.5.75.776,1.091a19.472,19.472,0,0,0,3.775,3.77c.359.28.732.532,1.111.79a19.635,19.635,0,0,0,7.081,2.934c.429.077.858.155,1.274.2a19.6,19.6,0,0,0,2.67.186,19.321,19.321,0,0,0,2.648-.184c.429-.05.849-.125,1.316-.21h.038a19.564,19.564,0,0,0,7.032-2.929c.375-.25.751-.5,1.092-.775a19.43,19.43,0,0,0,3.773-3.778c.28-.36.535-.732.787-1.1a19.636,19.636,0,0,0,2.94-7.1c.078-.42.153-.841.2-1.25a19.248,19.248,0,0,0,0-5.318c-.051-.432-.125-.854-.211-1.326V38a19.592,19.592,0,0,0-2.93-7.026c-.25-.375-.507-.75-.776-1.091a19.472,19.472,0,0,0-3.774-3.77c-.359-.28-.732-.532-1.111-.79a19.635,19.635,0,0,0-7.081-2.934c-.429-.077-.858-.155-1.274-.2a19.416,19.416,0,0,0-5.323,0c-.429.05-.849.125-1.316.21h-.038a19.564,19.564,0,0,0-7.032,2.929c-.375.25-.751.5-1.092.775a19.43,19.43,0,0,0-3.768,3.775c-.28.36-.535.733-.787,1.105a19.637,19.637,0,0,0-2.94,7.1c-.078.42-.151.841-.2,1.25a19.247,19.247,0,0,0,0,5.317c.053.433.125.854.211,1.326V46a19.592,19.592,0,0,0,2.929,7.026ZM11.233,47h4.7l-3.321,3.313A16.992,16.992,0,0,1,11.233,47Zm11.778,11.77A17.114,17.114,0,0,1,19.7,57.394l3.315-3.323Zm10.008,0v-4.7l3.315,3.317a17.106,17.106,0,0,1-3.315,1.38Zm10.4-8.458L40.1,47h4.7a17.046,17.046,0,0,1-1.381,3.313ZM44.8,37H40.1l3.321-3.312A16.992,16.992,0,0,1,44.8,37ZM33.019,25.229A17.114,17.114,0,0,1,36.334,26.6l-3.315,3.322Zm-10.008,0v4.7L19.7,26.609A16.986,16.986,0,0,1,23.011,25.229Zm-5.6,2.856c.044-.033.089-.06.131-.092l5.833,5.839a1.251,1.251,0,0,0,2.137-.882V24.691c.06-.009.111-.02.173-.028a16.92,16.92,0,0,1,2.329-.164c.173,0,.348.013.522.019a17.318,17.318,0,0,1,1.835.147c.05.006.1.018.146.024v8.26a1.251,1.251,0,0,0,2.137.882L38.485,28c.049.036.1.065.145.1a17.065,17.065,0,0,1,3.309,3.309c.034.042.061.089.094.131l-5.845,5.829a1.25,1.25,0,0,0,.883,2.129h8.267c.009.059.02.11.028.171a16.743,16.743,0,0,1,0,4.683,1.182,1.182,0,0,1-.023.146H37.072a1.25,1.25,0,0,0-.883,2.135l5.843,5.829c-.036.048-.066.1-.1.145a17.052,17.052,0,0,1-3.31,3.305c-.044.033-.089.06-.125.092L32.66,50.167a1.251,1.251,0,0,0-2.143.882v8.259c-.06.009-.111.02-.173.027a16.71,16.71,0,0,1-4.685,0,1.189,1.189,0,0,1-.146-.024V51.049a1.251,1.251,0,0,0-2.137-.882l-5.832,5.839c-.049-.036-.1-.065-.145-.1a17.065,17.065,0,0,1-3.309-3.309c-.034-.043-.061-.089-.094-.125l5.845-5.829a1.25,1.25,0,0,0-.883-2.141H10.691c-.009-.059-.02-.11-.028-.171a16.743,16.743,0,0,1,0-4.682,1.182,1.182,0,0,1,.023-.146h8.272a1.25,1.25,0,0,0,.883-2.135L14,31.536c.036-.047.066-.1.1-.145a17.052,17.052,0,0,1,3.3-3.305Zm-4.8,5.6L15.934,37h-4.7a17.046,17.046,0,0,1,1.381-3.312Z" transform="translate(1.495 4.501)" fill="#013662"></path><path id="Path_55" data-name="Path 55" d="M24.753,42.5A3.75,3.75,0,1,0,21,38.75,3.751,3.751,0,0,0,24.753,42.5Zm0-5A1.25,1.25,0,1,1,23.5,38.75,1.25,1.25,0,0,1,24.753,37.5Z" transform="translate(4.757 7.75)" fill="#013662"></path><path id="Path_56" data-name="Path 56" d="M23,32h2.5v2.5H23Z" transform="translate(5.259 7)" fill="#013662"></path><path id="Path_57" data-name="Path 57" d="M23,42h2.5v2.5H23Z" transform="translate(5.259 9.5)" fill="#013662"></path><path id="Path_58" data-name="Path 58" d="M28,37h2.5v2.5H28Z" transform="translate(6.514 8.25)" fill="#013662"></path><path id="Path_59" data-name="Path 59" d="M18,37h2.5v2.5H18Z" transform="translate(4.004 8.25)" fill="#013662"></path><path id="Path_60" data-name="Path 60" d="M29.51,74c.375,0,.737-.014,1.092-.033a1.118,1.118,0,0,0,.159.033H50.777V71.5H40.983c.367-.169.726-.353,1.083-.536.1-.05.2-.095.294-.145.609-.321,1.2-.67,1.784-1.035.155-.1.306-.2.459-.3q.689-.451,1.347-.943c.138-.1.278-.2.413-.306.224-.174.442-.354.661-.534v.048H74.545a3.751,3.751,0,0,1-3.753,3.75H58.283V74h12.51a6.26,6.26,0,0,0,6.255-6.25V55.25A6.26,6.26,0,0,0,70.792,49H70.76a6.182,6.182,0,0,0,1.284-3.75V32.75A6.182,6.182,0,0,0,70.76,29h.033a6.26,6.26,0,0,0,6.255-6.25V10.25A6.26,6.26,0,0,0,70.792,4H34.514a6.26,6.26,0,0,0-6.255,6.25v8.781A27.5,27.5,0,0,0,29.51,74Zm7.152-54.037c-.48-.125-.961-.25-1.449-.358-.359-.076-.723-.134-1.087-.195-.479-.081-.96-.155-1.446-.211-.375-.042-.751-.073-1.126-.1-.264-.019-.523-.058-.787-.07V17.75H74.545v2.5H37.715l-.033-.009c-.337-.1-.679-.187-1.021-.279ZM56.537,41.338c-.061-.322-.138-.64-.21-.959-.009-.042-.018-.085-.028-.125H69.541v2.5H56.755c-.064-.478-.13-.951-.218-1.419ZM55.6,37.75c-.153-.457-.32-.907-.5-1.355q-.188-.471-.375-.934c-.031-.069-.056-.141-.088-.211H69.541v2.5Zm-1.99,22.03c.063-.114.131-.223.193-.338q.44-.829.827-1.693H74.545v2.5H53.34C53.43,60.094,53.521,59.938,53.608,59.78Zm-3.957,5.47c.069-.074.133-.154.2-.229.457-.5.9-1.012,1.321-1.546.053-.067.1-.139.153-.206.125-.17.25-.345.384-.519H74.545v2.5Zm24.895-10H55.6c.029-.084.053-.169.08-.25q.323-1,.569-2.02c.038-.156.068-.316.1-.474.075-.334.154-.665.216-1H70.792a3.751,3.751,0,0,1,3.753,3.744ZM56.918,49c.006-.071,0-.147.01-.219.064-.75.1-1.508.1-2.281,0-.42-.035-.834-.054-1.25H69.541A3.751,3.751,0,0,1,65.788,49ZM69.541,32.75H53.354c-.233-.4-.49-.787-.744-1.177-.125-.191-.235-.39-.365-.579-.469-.682-.968-1.35-1.5-1.994H65.788a3.751,3.751,0,0,1,3.753,3.75Zm1.251-6.25h-22.4c-.339-.32-.7-.607-1.05-.907-.236-.2-.464-.416-.706-.61-.535-.426-1.09-.821-1.651-1.2-.143-.1-.278-.209-.422-.3-.4-.259-.809-.486-1.217-.724h31.2a3.751,3.751,0,0,1-3.753,3.75ZM34.514,6.5H70.792a3.751,3.751,0,0,1,3.753,3.75H58.3v2.5H74.545v2.5H30.761v-2.5h25.02v-2.5H30.761A3.751,3.751,0,0,1,34.514,6.5Zm-5,15q1.235,0,2.452.118a24.912,24.912,0,0,1,5.054,1.037v.1h.269A24.989,24.989,0,0,1,54.53,46.5a23.689,23.689,0,0,1-.263,3.574q-.158,1.11-.41,2.185A24.988,24.988,0,0,1,30.685,71.465c-.388.024-.776.035-1.175.035a25,25,0,1,1,0-50Z" transform="translate(0)" fill="#013662"></path><path id="Path_61" data-name="Path 61" d="M43,58h2.5v2.5H43Z" transform="translate(10.279 13.5)" fill="#013662"></path></g></svg>