<svg xmlns="http://www.w3.org/2000/svg" id="Group_69" data-name="Group 69" width="66.197" height="70" viewBox="0 0 66.197 70"><path id="Path_1" data-name="Path 1" d="M77.749-175.746H68.936l2.492,33.138h3.83Zm-11.472-2.467H80.408l-2.863,38.072H69.14Z" transform="translate(-40.244 178.213)" fill="#013662"></path><path id="Path_2" data-name="Path 2" d="M71.652-65.611a3.46,3.46,0,0,0,3.457,3.456,3.46,3.46,0,0,0,3.456-3.456,3.46,3.46,0,0,0-3.456-3.456,3.46,3.46,0,0,0-3.457,3.456m-2.467,0a5.929,5.929,0,0,1,5.923-5.923,5.93,5.93,0,0,1,5.923,5.923,5.93,5.93,0,0,1-5.923,5.923,5.93,5.93,0,0,1-5.923-5.923" transform="translate(-42.01 113.436)" fill="#013662"></path><path id="Path_3" data-name="Path 3" d="M13.664-178.083v9.461A33.024,33.024,0,0,0,0-141.834a33.028,33.028,0,0,0,13.664,26.791v6.909h7.513v-5.472h3.111v5.472H31.8v-5.472h3.11v5.472h7.513v-5.472h3.11v5.472h7.513v-7.292A33.123,33.123,0,0,0,66.2-141.834a33.121,33.121,0,0,0-13.149-26.409v-9.84H45.535v13.8l1.1.732.577.383a25.544,25.544,0,0,1,11.468,21.337,25.579,25.579,0,0,1-10.572,20.715H18.079a25.673,25.673,0,0,1-7.61-8.738,25.691,25.691,0,0,1-2.956-11.977A25.479,25.479,0,0,1,19.43-163.459l.6-.38,1.147-.726v-13.519Zm2.467,2.467h2.58v9.694l-.6.38A27.934,27.934,0,0,0,5.047-141.834,27.922,27.922,0,0,0,17.3-118.653H48.892A28,28,0,0,0,61.15-141.834a28,28,0,0,0-12.572-23.393L48-165.61v-10.007h2.579v8.631A30.573,30.573,0,0,1,63.73-141.834a30.575,30.575,0,0,1-13.149,25.151v6.082H48v-5.472H39.957v5.472H37.378v-5.472H29.334v5.472h-2.58v-5.472H18.711v5.472h-2.58v-5.732a30.49,30.49,0,0,1-13.664-25.5,30.491,30.491,0,0,1,13.664-25.5v-8.283" transform="translate(0 178.134)" fill="#013662"></path></svg>