<svg xmlns="http://www.w3.org/2000/svg" xmlns:xlink="http://www.w3.org/1999/xlink" xmlns:serif="http://www.serif.com/" width="100%" height="100%" viewBox="0 0 375 188" xml:space="preserve" style="fill-rule:evenodd;clip-rule:evenodd;stroke-linejoin:round;stroke-miterlimit:2;"><rect id="Artboard1" x="0" y="0" width="375" height="187.5" style="fill:none;"></rect><g><g><path d="M179.794,37.566c-2.471,-0 -4.476,1.965 -4.476,4.386c-0,2.421 2.005,4.386 4.476,4.386c2.471,0 4.476,-1.965 4.476,-4.386c-0,-2.421 -2.005,-4.386 -4.476,-4.386Z" style="fill:#fff;fill-rule:nonzero;"></path></g><g><path d="M341.343,75.078l-6.476,-12.693c-2.29,-4.488 -6.892,-7.275 -12.011,-7.275l-37.435,-0l0,-30.702c0,-7.255 -6.023,-13.158 -13.427,-13.158l-128.006,-0c-7.404,-0 -13.427,5.902 -13.427,13.158l0,114.035c0,7.255 6.023,13.158 13.427,13.158l13.428,-0c-0,6.734 2.598,12.884 6.859,17.543l-29.238,0c-2.472,0 -4.476,1.965 -4.476,4.387c0,2.422 2.004,4.386 4.476,4.386l220.206,-0c2.472,-0 4.476,-1.964 4.476,-4.386c-0,-2.422 -2.004,-4.387 -4.476,-4.387l-11.336,0c4.262,-4.659 6.86,-10.809 6.86,-17.543c-0,-0.25 -0.012,-0.499 -0.019,-0.749c5.219,-1.805 8.97,-6.684 8.97,-12.409l0,-24.246c0,-5.118 1.035,-0.34 -18.375,-39.119Zm-6.77,6.347l13.428,26.316l-44.677,0l0,-26.316l31.249,0Zm-195.06,35.088l8.951,-0l-0,8.772l-8.951,-0l-0,-8.772Zm44.757,52.631c-9.872,0 -17.903,-7.87 -17.903,-17.543c0,-1.195 0.121,-2.371 0.363,-3.514c1.683,-8.13 9.06,-14.03 17.54,-14.03c8.48,-0 15.857,5.9 17.54,14.03c0.001,0.006 0.003,0.012 0.004,0.018c0.238,1.125 0.359,2.301 0.359,3.496c-0,9.673 -8.032,17.543 -17.903,17.543Zm-0,-43.859c-11.468,-0 -21.588,7.199 -25.32,17.543l-14.962,0c-2.468,0 -4.475,-1.967 -4.475,-4.386l-0,-4.386l13.427,0c2.472,0 4.476,-1.964 4.476,-4.386l-0,-17.544c-0,-2.422 -2.004,-4.386 -4.476,-4.386l-13.427,0l-0,-83.332c-0,-2.419 2.007,-4.386 4.475,-4.386l128.006,-0c2.468,-0 4.476,1.967 4.476,4.386l-0,118.421l-66.883,-0c-3.738,-10.351 -13.854,-17.544 -25.317,-17.544Zm19.994,43.859c4.262,-4.659 6.86,-10.809 6.86,-17.543l85.934,-0c-0,6.734 2.598,12.884 6.86,17.543l-99.654,0Zm119.648,0c-9.871,0 -17.902,-7.87 -17.902,-17.543c-0,-1.195 0.12,-2.371 0.362,-3.514c1.683,-8.13 9.06,-14.03 17.54,-14.03c8.48,-0 15.858,5.9 17.54,14.03c0.002,0.006 0.003,0.012 0.005,0.018c0.238,1.125 0.358,2.301 0.358,3.496c0,9.673 -8.031,17.543 -17.903,17.543Zm26.855,-30.701c-0,1.459 -0.734,2.749 -1.855,3.548c-3.971,-9.899 -13.849,-16.706 -25,-16.706c-11.467,0 -21.588,7.199 -25.319,17.544l-13.172,-0l-0,-78.948l37.435,0c1.706,0 3.24,0.93 4.004,2.426l3.238,6.346l-31.249,0c-2.472,0 -4.476,1.964 -4.476,4.386l-0,35.088c-0,2.422 2.004,4.386 4.476,4.386l51.918,0l-0,21.93Z" style="fill:#fff;fill-rule:nonzero;"></path></g><g><path d="M254.091,37.566l-56.394,-0c-2.472,-0 -4.476,1.964 -4.476,4.386c0,2.422 2.004,4.386 4.476,4.386l56.394,0c2.472,0 4.476,-1.964 4.476,-4.386c0,-2.422 -2.004,-4.386 -4.476,-4.386Z" style="fill:#fff;fill-rule:nonzero;"></path></g><g><path d="M254.091,55.11l-38.491,-0c-2.472,-0 -4.476,1.964 -4.476,4.386c-0,2.422 2.004,4.386 4.476,4.386l38.491,-0c2.472,-0 4.476,-1.964 4.476,-4.386c0,-2.422 -2.004,-4.386 -4.476,-4.386Z" style="fill:#fff;fill-rule:nonzero;"></path></g><g><path d="M323.912,142.829c-4.936,-0 -8.951,3.935 -8.951,8.772c-0,4.837 4.016,8.772 8.951,8.772c4.936,-0 8.952,-3.936 8.952,-8.772c-0,-4.837 -4.016,-8.772 -8.952,-8.772Z" style="fill:#fff;fill-rule:nonzero;"></path></g><g><path d="M184.27,142.829c-4.936,-0 -8.952,3.935 -8.952,8.772c0,4.837 4.016,8.772 8.952,8.772c4.936,-0 8.951,-3.936 8.951,-8.772c0,-4.837 -4.015,-8.772 -8.951,-8.772Z" style="fill:#fff;fill-rule:nonzero;"></path></g></g><text x="27.494px" y="145.8px" style="font-family:'Ubuntu-Bold', 'Ubuntu', sans-serif;font-weight:700;font-size:150px;fill:none;stroke:#fff;stroke-width:8.33px;">3</text></svg>